<svg width="41" height="41" viewBox="0 0 41 41" fill="none" xmlns="http://www.w3.org/2000/svg">
<rect x="0.0498047" y="0.5" width="40" height="40" rx="20" fill="#8D8E8F"/>
<rect width="23" height="23" transform="matrix(1 0 0 -1 11 33.5)" stroke="none"/>
<mask id="path-3-inside-1_2877_658" fill="white">
<path d="M16.3906 14.0938C15.4173 14.0938 14.5189 14.3371 13.6953 14.8237C12.8717 15.3104 12.2166 15.9655 11.73 16.7891C11.2433 17.6126 11 18.5111 11 19.4844C11 20.3079 11.2995 21.1615 11.8984 22.0449C12.1829 22.4792 12.4749 22.8311 12.7744 23.1006L21.0625 31.4111L29.6201 22.8311C29.8447 22.5915 30.0544 22.3369 30.249 22.0674C30.5036 21.693 30.7057 21.3112 30.8555 20.9219C31.0352 20.4277 31.125 19.9486 31.125 19.4844C31.125 18.5111 30.8817 17.6126 30.395 16.7891C29.9084 15.9655 29.2533 15.3104 28.4297 14.8237C27.6061 14.3371 26.7077 14.0938 25.7344 14.0938C23.9974 14.0938 22.4401 14.7975 21.0625 16.2051C19.6849 14.7975 18.1276 14.0938 16.3906 14.0938ZM16.3906 15.5312C16.8848 15.5312 17.4014 15.6436 17.9404 15.8682C18.3747 16.0329 18.8164 16.265 19.2656 16.5645C19.5801 16.7891 19.887 17.0286 20.1865 17.2832L20.5234 17.6201L21.0625 18.2266L21.6016 17.6201L21.9385 17.2832C22.238 17.0286 22.5449 16.7891 22.8594 16.5645C23.3086 16.265 23.7503 16.0329 24.1846 15.8682C24.7236 15.6436 25.2402 15.5312 25.7344 15.5312C26.4531 15.5312 27.1157 15.7109 27.7222 16.0703C28.3286 16.4297 28.8078 16.9126 29.1597 17.519C29.5116 18.1255 29.6875 18.7806 29.6875 19.4844C29.6875 19.8138 29.5677 20.2031 29.3281 20.6523C29.1634 20.9818 28.9538 21.3187 28.6992 21.6631L28.3398 22.0898L21.0625 29.3672L13.7852 22.0898L13.5605 21.8652C13.3958 21.6556 13.2386 21.446 13.0889 21.2363C12.8942 20.9518 12.7445 20.6673 12.6396 20.3828C12.5049 20.0534 12.4375 19.7539 12.4375 19.4844C12.4375 18.7806 12.6134 18.1255 12.9653 17.519C13.3172 16.9126 13.7964 16.4297 14.4028 16.0703C15.0093 15.7109 15.6719 15.5312 16.3906 15.5312Z"/>
</mask>
<path d="M16.3906 14.0938C15.4173 14.0938 14.5189 14.3371 13.6953 14.8237C12.8717 15.3104 12.2166 15.9655 11.73 16.7891C11.2433 17.6126 11 18.5111 11 19.4844C11 20.3079 11.2995 21.1615 11.8984 22.0449C12.1829 22.4792 12.4749 22.8311 12.7744 23.1006L21.0625 31.4111L29.6201 22.8311C29.8447 22.5915 30.0544 22.3369 30.249 22.0674C30.5036 21.693 30.7057 21.3112 30.8555 20.9219C31.0352 20.4277 31.125 19.9486 31.125 19.4844C31.125 18.5111 30.8817 17.6126 30.395 16.7891C29.9084 15.9655 29.2533 15.3104 28.4297 14.8237C27.6061 14.3371 26.7077 14.0938 25.7344 14.0938C23.9974 14.0938 22.4401 14.7975 21.0625 16.2051C19.6849 14.7975 18.1276 14.0938 16.3906 14.0938ZM16.3906 15.5312C16.8848 15.5312 17.4014 15.6436 17.9404 15.8682C18.3747 16.0329 18.8164 16.265 19.2656 16.5645C19.5801 16.7891 19.887 17.0286 20.1865 17.2832L20.5234 17.6201L21.0625 18.2266L21.6016 17.6201L21.9385 17.2832C22.238 17.0286 22.5449 16.7891 22.8594 16.5645C23.3086 16.265 23.7503 16.0329 24.1846 15.8682C24.7236 15.6436 25.2402 15.5312 25.7344 15.5312C26.4531 15.5312 27.1157 15.7109 27.7222 16.0703C28.3286 16.4297 28.8078 16.9126 29.1597 17.519C29.5116 18.1255 29.6875 18.7806 29.6875 19.4844C29.6875 19.8138 29.5677 20.2031 29.3281 20.6523C29.1634 20.9818 28.9538 21.3187 28.6992 21.6631L28.3398 22.0898L21.0625 29.3672L13.7852 22.0898L13.5605 21.8652C13.3958 21.6556 13.2386 21.446 13.0889 21.2363C12.8942 20.9518 12.7445 20.6673 12.6396 20.3828C12.5049 20.0534 12.4375 19.7539 12.4375 19.4844C12.4375 18.7806 12.6134 18.1255 12.9653 17.519C13.3172 16.9126 13.7964 16.4297 14.4028 16.0703C15.0093 15.7109 15.6719 15.5312 16.3906 15.5312Z" fill="white"/>
<path d="M11.8984 22.0449L49.973 -3.76836L50.1767 -3.46791L50.3756 -3.16429L11.8984 22.0449ZM12.7744 23.1006L43.5468 -11.0909L44.4691 -10.2609L45.3453 -9.38228L12.7744 23.1006ZM21.0625 31.4111L53.632 63.8954L21.0611 96.5518L-11.5084 63.894L21.0625 31.4111ZM29.6201 22.8311L63.1788 54.2923L62.6921 54.8115L62.1896 55.3153L29.6201 22.8311ZM30.249 22.0674L68.2876 47.9336L67.9215 48.4721L67.5403 48.9999L30.249 22.0674ZM30.8555 20.9219L74.086 36.6421L73.9413 37.0398L73.7894 37.4349L30.8555 20.9219ZM21.0625 16.2051L53.9373 48.3804L21.0625 81.9698L-11.8123 48.3804L21.0625 16.2051ZM17.9404 15.8682L1.62634 58.878L0.932808 58.615L0.248122 58.3297L17.9404 15.8682ZM19.2656 16.5645L44.7818 -21.7099L45.399 -21.2984L46.0026 -20.8673L19.2656 16.5645ZM20.1865 17.2832L49.9784 -17.766L51.3969 -16.5602L52.7134 -15.2437L20.1865 17.2832ZM20.5234 17.6201L53.0504 -14.9068L54.0062 -13.9509L54.9043 -12.9406L20.5234 17.6201ZM21.0625 18.2266L55.4433 48.7873L21.0625 87.4657L-13.3183 48.7873L21.0625 18.2266ZM21.6016 17.6201L-12.7793 -12.9406L-11.8812 -13.9509L-10.9254 -14.9068L21.6016 17.6201ZM21.9385 17.2832L-10.5884 -15.2437L-9.27194 -16.5602L-7.85335 -17.766L21.9385 17.2832ZM22.8594 16.5645L-3.87758 -20.8673L-3.274 -21.2984L-2.65683 -21.7099L22.8594 16.5645ZM24.1846 15.8682L41.8769 58.3297L41.1922 58.615L40.4987 58.878L24.1846 15.8682ZM29.3281 20.6523L-11.8155 0.0805187L-11.5449 -0.460752L-11.2601 -0.994717L29.3281 20.6523ZM28.6992 21.6631L65.6913 49.0051L64.8245 50.1778L63.8851 51.2933L28.6992 21.6631ZM28.3398 22.0898L63.5258 51.7201L62.2582 53.2253L60.8668 54.6168L28.3398 22.0898ZM21.0625 29.3672L53.5894 61.8941L21.0625 94.421L-11.4644 61.8941L21.0625 29.3672ZM13.5605 21.8652L-18.9664 54.3921L-20.911 52.4475L-22.6101 50.285L13.5605 21.8652ZM13.0889 21.2363L-24.3429 47.9733L-24.6129 47.5952L-24.8753 47.2118L13.0889 21.2363ZM12.6396 20.3828L55.2148 2.9657L55.5225 3.71783L55.8034 4.48037L12.6396 20.3828ZM16.3906 60.0938C23.4987 60.0938 30.704 58.204 37.0969 54.4264L-9.70623 -24.7789C-1.6662 -29.5298 7.33595 -31.9062 16.3906 -31.9062V60.0938ZM37.0969 54.4264C42.9537 50.9655 47.8718 46.0474 51.3326 40.1906L-27.8726 -6.61248C-23.4385 -14.1164 -17.2102 -20.3448 -9.70623 -24.7789L37.0969 54.4264ZM51.3326 40.1906C55.1102 33.7977 57 26.5924 57 19.4844H-35C-35 10.4297 -32.6236 1.42755 -27.8726 -6.61248L51.3326 40.1906ZM57 19.4844C57 8.73023 53.0229 0.730171 49.973 -3.76836L-26.1762 47.8582C-30.4239 41.5927 -35 31.8857 -35 19.4844H57ZM50.3756 -3.16429C49.0784 -5.14429 46.8958 -8.0768 43.5468 -11.0909L-17.998 57.2921C-21.946 53.7389 -24.7125 50.1026 -26.5788 47.2541L50.3756 -3.16429ZM45.3453 -9.38228L53.6334 -1.07174L-11.5084 63.894L-19.7965 55.5835L45.3453 -9.38228ZM-11.507 -1.07312L-2.9494 -9.6532L62.1896 55.3153L53.632 63.8954L-11.507 -1.07312ZM-3.93859 -8.63024C-5.06979 -7.42363 -6.10458 -6.16346 -7.04222 -4.86518L67.5403 48.9999C66.2133 50.8373 64.7592 52.6066 63.1788 54.2923L-3.93859 -8.63024ZM-7.78959 -3.79888C-9.35297 -1.49979 -10.8582 1.23623 -12.0784 4.40884L73.7894 37.4349C72.2697 41.3862 70.3601 44.8859 68.2876 47.9336L-7.78959 -3.79888ZM-12.375 5.20169C-13.787 9.08461 -14.875 13.9257 -14.875 19.4844H77.125C77.125 25.9714 75.8573 31.7709 74.086 36.6421L-12.375 5.20169ZM-14.875 19.4844C-14.875 26.5924 -12.9852 33.7977 -9.2076 40.1906L69.9976 -6.61248C74.7486 1.42755 77.125 10.4297 77.125 19.4844H-14.875ZM-9.2076 40.1906C-5.74677 46.0474 -0.82865 50.9655 5.02814 54.4264L51.8312 -24.7789C59.3352 -20.3448 65.5635 -14.1164 69.9976 -6.61248L-9.2076 40.1906ZM5.02814 54.4264C11.421 58.204 18.6263 60.0938 25.7344 60.0938V-31.9062C34.789 -31.9062 43.7912 -29.5298 51.8312 -24.7789L5.02814 54.4264ZM25.7344 60.0938C31.2882 60.0938 36.9331 58.9233 42.2075 56.5398C47.368 54.2076 51.23 51.1465 53.9373 48.3804L-11.8123 -15.9702C-3.0472 -24.9258 9.92619 -31.9062 25.7344 -31.9062V60.0938ZM-11.8123 48.3804C-9.105 51.1465 -5.24303 54.2076 -0.0824594 56.5398C5.19186 58.9233 10.8368 60.0938 16.3906 60.0938V-31.9062C32.1988 -31.9062 45.1722 -24.9258 53.9373 -15.9702L-11.8123 48.3804ZM16.3906 -30.4688C23.9569 -30.4688 30.4899 -28.7362 35.6327 -26.5934L0.248122 58.3297C4.31286 60.0233 9.81267 61.5312 16.3906 61.5312V-30.4688ZM34.2545 -27.1417C38.397 -25.5705 41.9064 -23.6268 44.7818 -21.7099L-6.25058 54.8388C-4.27358 56.1568 -1.6476 57.6362 1.62634 58.878L34.2545 -27.1417ZM46.0026 -20.8673C47.3861 -19.879 48.7113 -18.843 49.9784 -17.766L-9.6053 52.3324C-8.93721 52.9003 -8.22597 53.4572 -7.47133 53.9962L46.0026 -20.8673ZM52.7134 -15.2437L53.0504 -14.9068L-12.0035 50.147L-12.3404 49.8101L52.7134 -15.2437ZM54.9043 -12.9406L55.4433 -12.3342L-13.3183 48.7873L-13.8574 48.1809L54.9043 -12.9406ZM-13.3183 -12.3342L-12.7793 -12.9406L55.9824 48.1809L55.4433 48.7873L-13.3183 -12.3342ZM-10.9254 -14.9068L-10.5884 -15.2437L54.4654 49.8101L54.1285 50.147L-10.9254 -14.9068ZM-7.85335 -17.766C-6.58629 -18.843 -5.26113 -19.879 -3.87758 -20.8673L49.5963 53.9962C50.351 53.4572 51.0622 52.9003 51.7303 52.3324L-7.85335 -17.766ZM-2.65683 -21.7099C0.218612 -23.6268 3.72805 -25.5705 7.87048 -27.1417L40.4987 58.878C43.7726 57.6362 46.3986 56.1568 48.3756 54.8388L-2.65683 -21.7099ZM6.49226 -26.5934C11.6351 -28.7362 18.1681 -30.4688 25.7344 -30.4688V61.5312C32.3123 61.5312 37.8121 60.0233 41.8769 58.3297L6.49226 -26.5934ZM25.7344 -30.4688C34.535 -30.4688 43.3228 -28.1551 51.1731 -23.5031L4.27126 55.6437C10.9087 59.577 18.3712 61.5312 25.7344 61.5312V-30.4688ZM51.1731 -23.5031C58.5063 -19.1575 64.626 -13.0139 68.9468 -5.56734L-10.6275 40.6054C-7.01042 46.8391 -1.8491 52.0168 4.27126 55.6437L51.1731 -23.5031ZM68.9468 -5.56734C73.3843 2.08018 75.6875 10.7041 75.6875 19.4844H-16.3125C-16.3125 26.8571 -14.3612 34.1708 -10.6275 40.6054L68.9468 -5.56734ZM75.6875 19.4844C75.6875 30.3842 71.9472 38.4916 69.9164 42.2994L-11.2601 -0.994717C-12.8118 1.91465 -16.3125 9.24343 -16.3125 19.4844H75.6875ZM70.4718 41.2242C68.9482 44.2714 67.2747 46.8629 65.6913 49.0051L-8.29288 -5.6789C-9.36715 -4.22549 -10.6214 -2.30782 -11.8155 0.0805187L70.4718 41.2242ZM63.8851 51.2933L63.5258 51.7201L-6.84607 -7.5404L-6.4867 -7.96716L63.8851 51.2933ZM60.8668 54.6168L53.5894 61.8941L-11.4644 -3.15973L-4.18707 -10.4371L60.8668 54.6168ZM-11.4644 61.8941L-18.7418 54.6168L46.3121 -10.4371L53.5894 -3.15973L-11.4644 61.8941ZM-18.7418 54.6168L-18.9664 54.3921L46.0875 -10.6617L46.3121 -10.4371L-18.7418 54.6168ZM-22.6101 50.285C-23.193 49.5432 -23.7718 48.7728 -24.3429 47.9733L50.5206 -5.50063C50.249 -5.88086 49.9846 -6.23199 49.7312 -6.55456L-22.6101 50.285ZM-24.8753 47.2118C-26.9252 44.2157 -28.9435 40.5757 -30.5241 36.2853L55.8034 4.48037C54.4324 0.758966 52.7136 -2.31209 51.053 -4.73913L-24.8753 47.2118ZM-29.9355 37.7999C-31.6449 33.6215 -33.5625 27.3069 -33.5625 19.4844H58.4375C58.4375 12.2009 56.6546 6.48526 55.2148 2.9657L-29.9355 37.7999ZM-33.5625 19.4844C-33.5625 10.7041 -31.2593 2.08018 -26.8218 -5.56734L52.7525 40.6054C56.4862 34.1708 58.4375 26.8571 58.4375 19.4844H-33.5625ZM-26.8218 -5.56734C-22.501 -13.0139 -16.3813 -19.1575 -9.04808 -23.5031L37.8537 55.6437C43.9741 52.0168 49.1354 46.8391 52.7525 40.6054L-26.8218 -5.56734ZM-9.04808 -23.5031C-1.19776 -28.1551 7.58997 -30.4688 16.3906 -30.4688V61.5312C23.7538 61.5312 31.2163 59.577 37.8537 55.6437L-9.04808 -23.5031Z" fill="white" mask="url(#path-3-inside-1_2877_658)"/>
</svg>
