<svg width="41" height="41" viewBox="0 0 41 41" fill="none" xmlns="http://www.w3.org/2000/svg">
<rect x="0.97998" y="0.5" width="40" height="40" rx="20" fill="#8D8E8F"/>
<path d="M30.7649 17.3155L15.3119 15.6055L14.3699 12.0362C14.337 11.9167 14.2659 11.8111 14.1675 11.7356C14.0691 11.66 13.9487 11.6187 13.8247 11.6177H11.5049C11.4213 11.5047 11.3125 11.4127 11.1871 11.3489C11.0618 11.2851 10.9233 11.2513 10.7827 11.2502C10.5357 11.2502 10.2989 11.3483 10.1243 11.523C9.94966 11.6976 9.85156 11.9344 9.85156 12.1814C9.85156 12.4283 9.94966 12.6652 10.1243 12.8398C10.2989 13.0144 10.5357 13.1125 10.7827 13.1125C11.0827 13.1125 11.3362 12.9625 11.5064 12.7435H13.3904L17.3129 27.5935C16.8849 28.0489 16.6463 28.6501 16.6454 29.275C16.6451 29.5993 16.7088 29.9206 16.8328 30.2203C16.9567 30.52 17.1386 30.7924 17.3679 31.0218C17.5972 31.2512 17.8695 31.4331 18.1692 31.5571C18.4689 31.6812 18.7901 31.7449 19.1144 31.7447C19.7698 31.7449 20.3984 31.4849 20.8621 31.0218C21.3258 30.5586 21.5866 29.9304 21.5872 29.275C21.5858 29.0872 21.5624 28.9001 21.5174 28.7177H25.6672C25.6231 28.9003 25.6 29.0872 25.5982 29.275C25.5982 30.64 26.7052 31.7447 28.0702 31.7447C29.4352 31.7447 30.5399 30.64 30.5399 29.275C30.5401 28.6195 30.28 27.9908 29.8167 27.5271C29.3534 27.0634 28.7249 26.8026 28.0694 26.8022C27.3569 26.8022 26.7194 27.1097 26.2679 27.592H20.9159C20.6861 27.3435 20.4075 27.1451 20.0976 27.0092C19.7876 26.8733 19.4529 26.8029 19.1144 26.8022C18.8294 26.8022 18.5609 26.8607 18.3067 26.9492L18.1702 26.4347H29.1074C29.5278 26.4262 29.933 26.2765 30.2581 26.01C30.5832 25.7434 30.8092 25.3753 30.8999 24.9647L32.0812 19.1162C32.1019 19.0141 32.112 18.91 32.1112 18.8057C32.1118 18.4345 31.9743 18.0763 31.7255 17.8007C31.4767 17.5252 31.1343 17.3527 30.7649 17.3155ZM28.0709 29.4955C28.0123 29.4949 27.9562 29.4715 27.9146 29.4301C27.873 29.3888 27.8492 29.3329 27.8482 29.2742C27.8504 29.1497 27.9494 29.0507 28.0717 29.0507C28.1939 29.0507 28.2929 29.1497 28.2944 29.2735C28.2933 29.332 28.2694 29.3877 28.2278 29.4289C28.1862 29.4701 28.1302 29.4934 28.0717 29.494L28.0709 29.4955ZM29.4059 23.8742L30.1169 23.1617L29.8784 24.3467L29.4059 23.8742ZM18.5662 17.0965L19.3424 17.875L18.3749 18.8425L17.4052 17.875L18.2204 17.059L18.5662 17.0965ZM21.9397 17.47L22.3432 17.875L21.3757 18.8425L20.4059 17.875L20.9219 17.3575L21.9397 17.47ZM16.2224 19.057L16.8749 18.406L17.8424 19.375L16.8749 20.3425L16.4512 19.9202L16.2232 19.0562L16.2224 19.057ZM16.0012 18.217L15.7552 17.287L16.3439 17.8757L16.0012 18.217ZM25.3424 20.875L24.3749 21.8425L23.4052 20.875L24.3742 19.9052L25.3424 20.875ZM24.9052 19.375L25.8742 18.406L26.8417 19.375L25.8742 20.344L24.9052 19.375ZM22.8749 20.3425L21.9052 19.375L22.8742 18.4052L23.8417 19.3742L22.8749 20.3425ZM22.3424 20.875L21.3749 21.8425L20.4059 20.875L21.3749 19.9052L22.3424 20.875ZM19.8749 20.3425L18.9052 19.375L19.8742 18.4052L20.8417 19.3742L19.8749 20.3425ZM19.3424 20.875L18.3749 21.8425L17.4052 20.875L18.3742 19.9052L19.3424 20.875ZM16.8749 21.4052L17.8424 22.3742L17.2544 22.9615L16.8494 21.4285L16.8742 21.4037L16.8749 21.4052ZM17.4764 23.803L18.3742 22.9052L19.3417 23.8742L18.3742 24.8417L17.5267 23.9942L17.4764 23.803ZM18.9059 22.3742L19.8734 21.4045L20.8432 22.3735L19.8757 23.341L18.9067 22.3735L18.9059 22.3742ZM21.3749 22.9045L22.3439 23.8735L21.3749 24.841L20.4059 23.8735L21.3749 22.9045ZM21.9059 22.3735L22.8749 21.4037L23.8424 22.3727L22.8749 23.3402L21.9059 22.3735ZM24.3734 22.9037L25.3432 23.8727L24.3757 24.8402L23.4067 23.8712L24.3734 22.9037ZM24.9059 22.3727L25.8734 21.403L26.8432 22.372L25.8757 23.3395L24.9059 22.3727ZM26.4059 20.8727L27.3734 19.903L28.3432 20.872L27.3757 21.8395L26.4059 20.8727ZM27.9059 19.3727L28.8734 18.403L29.8424 19.375L28.8749 20.344L27.9052 19.3742L27.9059 19.3727ZM27.3734 18.8417L26.5072 17.9747L28.0687 18.1472L27.3734 18.8417ZM25.3439 17.875L24.3764 18.844L23.4067 17.875L23.6242 17.6575L25.3139 17.845L25.3439 17.875ZM19.8764 17.3425L19.7624 17.23L19.9672 17.2525L19.8772 17.3425H19.8764ZM16.8764 17.344L16.3889 16.8565L17.2664 16.954L16.8764 17.344ZM19.8764 24.4052L20.7802 25.309H18.9727L19.8764 24.4052ZM22.8764 24.4052L23.7802 25.3097H21.9712L22.8764 24.4052ZM25.8764 24.4052L26.7817 25.3105H24.9712L25.8764 24.4052ZM26.4067 23.8742L27.3757 22.9045L28.3432 23.8735L27.3757 24.841L26.4067 23.8742ZM27.9067 22.3742L28.8757 21.4052L29.8432 22.3727L28.8757 23.3425L27.9059 22.375L27.9067 22.3742ZM30.3757 21.8417L29.4067 20.8742L30.3742 19.9052L30.7079 20.2382L30.3854 21.8312L30.3749 21.8425L30.3757 21.8417ZM30.7507 18.4667L30.3757 18.8417L29.8807 18.349L30.6434 18.433C30.6839 18.439 30.7184 18.4525 30.7514 18.466L30.7507 18.4667ZM19.1159 29.4947C19.0592 29.4914 19.0059 29.4666 18.9668 29.4252C18.9278 29.3839 18.9061 29.3292 18.9061 29.2724C18.9061 29.2155 18.9278 29.1608 18.9668 29.1195C19.0059 29.0782 19.0592 29.0533 19.1159 29.05C19.1725 29.0533 19.2256 29.0781 19.2645 29.1193C19.3034 29.1605 19.325 29.215 19.325 29.2716C19.325 29.3283 19.3034 29.3828 19.2645 29.424C19.2256 29.4652 19.1725 29.49 19.1159 29.4932V29.4947ZM29.1082 25.3097H27.9704L28.8757 24.4045L29.5732 25.102C29.4329 25.2295 29.2559 25.3195 29.1082 25.3097Z" fill="white"/>
</svg>
